<svg xmlns="http://www.w3.org/2000/svg" viewBox="0 0 32 32">
  <defs>
    <linearGradient id="g" x1="0" y1="0" x2="1" y2="1">
      <stop offset="0" stop-color="#58b2f0"/>
      <stop offset="1" stop-color="#7a5cc9"/>
    </linearGradient>
  </defs>
  <rect width="32" height="32" rx="7" fill="#171d25"/>
  <path d="M6 5h20a3.5 3.5 0 0 1 3.5 3.5v11A3.5 3.5 0 0 1 26 23H14.5l-6 4.5V23H6a3.5 3.5 0 0 1-3.5-3.5v-11A3.5 3.5 0 0 1 6 5Z" fill="url(#g)"/>
  <rect x="7" y="11" width="12.5" height="2.5" rx="1.25" fill="#0d1117" opacity="0.78"/>
  <rect x="7" y="16" width="8" height="2.5" rx="1.25" fill="#0d1117" opacity="0.78"/>
  <rect x="17.8" y="14.8" width="2.7" height="5" rx="1.2" fill="#66c04b"/>
</svg>
